<svg xmlns="http://www.w3.org/2000/svg" viewBox="0 0 64 64" role="img" aria-label="Google logo">
  <rect width="64" height="64" rx="12" fill="#ffffff"/>
  <text x="32" y="42" text-anchor="middle" font-family="Arial, Helvetica, sans-serif" font-size="36" font-weight="700" fill="#4285f4">G</text>
  <path d="M32 8a24 24 0 0 1 16.6 6.6l-6.7 6.5A14.3 14.3 0 0 0 32 17.3c-7.9 0-14.3 6.4-14.3 14.7S24.1 46.7 32 46.7c6.9 0 11.7-3.9 13-9.4H32v-9h22.6c.3 1.3.4 2.7.4 4.3C55 46.4 45.8 56 32 56A24 24 0 0 1 32 8Z" fill="none" stroke="#4285f4" stroke-width="4"/>
</svg>
